<svg preserveAspectRatio="none" width="100%" height="100%" overflow="visible" style="display: block;" viewBox="0 0 19 20" fill="none" xmlns="http://www.w3.org/2000/svg">
<path id="Vector" d="M18 20V5.50001C18 4.81267 17.7553 4.22401 17.266 3.73401C16.7753 3.24467 16.1867 3.00001 15.5 3.00001H14V4.30001C14 4.50001 13.9333 4.66667 13.8 4.80001C13.6667 4.93334 13.5 5.00001 13.3 5.00001H8.97C8.69733 5.00001 8.50333 4.88467 8.388 4.65401C8.272 4.42334 8.26567 4.19134 8.369 3.95801L9.904 0.627007C10.008 0.403007 10.1403 0.24234 10.301 0.145007C10.4617 0.0476735 10.6793 -0.000659864 10.954 6.80272e-06H13.138C13.3847 6.80272e-06 13.59 0.0860068 13.754 0.258007C13.918 0.430007 14 0.639007 14 0.885007V2.00001H15.5C16.472 2.00001 17.2983 2.34034 17.979 3.02101C18.6597 3.70167 19 4.52801 19 5.50001V20H18ZM9.43 4.00001H13V1.00001H10.773L9.43 4.00001ZM2.5 20C1.792 20 1.19833 19.7603 0.719 19.281C0.239667 18.8017 0 18.208 0 17.5V15C0 14.4887 0.176667 14.037 0.53 13.645C0.883333 13.253 1.37333 13.0457 2 13.023V10.616C2 10.1713 2.15833 9.79067 2.475 9.47401C2.79167 9.15734 3.17167 8.99934 3.615 9.00001H11.385C11.829 9.00001 12.209 9.15834 12.525 9.47501C12.841 9.79167 12.9993 10.1717 13 10.615V13.023C13.626 13.0463 14.116 13.2443 14.47 13.617C14.8233 13.9903 15 14.4513 15 15V17.5C15 18.2087 14.7603 18.8023 14.281 19.281C13.8017 19.7597 13.208 19.9993 12.5 20H2.5ZM3 10.615V13.231C3.3 13.4043 3.54167 13.6617 3.725 14.003C3.90833 14.3443 4 14.6767 4 15V16H11V15C11 14.6773 11.0917 14.345 11.275 14.003C11.4583 13.661 11.7 13.4037 12 13.231V10.616C12 10.436 11.9423 10.2883 11.827 10.173C11.7117 10.0577 11.5643 10 11.385 10H3.615C3.43567 10 3.28833 10.0577 3.173 10.173C3.05767 10.2883 3 10.436 3 10.616M2.5 19H12.5C12.95 19 13.3127 18.8437 13.588 18.531C13.8633 18.2183 14.0007 17.8747 14 17.5V15C14 14.7 13.908 14.4583 13.724 14.275C13.54 14.0917 13.2973 14 12.996 14C12.6947 14 12.4533 14.0917 12.272 14.275C12.0907 14.4583 12 14.7 12 15V17H3V15C3 14.7 2.908 14.4583 2.724 14.275C2.54 14.0917 2.29733 14 1.996 14C1.69467 14 1.45333 14.0917 1.272 14.275C1.09067 14.4583 1 14.7 1 15V17.5C1 17.8753 1.13767 18.219 1.413 18.531C1.68833 18.843 2.05067 18.9993 2.5 19Z" fill="var(--fill-0, #A149E9)"/>
</svg>
