<svg preserveAspectRatio="none" width="100%" height="100%" overflow="visible" style="display: block;" viewBox="0 0 22.5 22.5" fill="none" xmlns="http://www.w3.org/2000/svg">
<path id="Vector" d="M11.25 0.75V3.75M11.25 18.75V21.75M21.75 11.25H18.75M3.75 11.25H0.75M18.674 3.826L16.553 5.947M5.946 16.554L3.825 18.675M18.674 18.675L16.553 16.554M5.946 5.947L3.825 3.826M6.75 11.25C6.75 12.4435 7.22411 13.5881 8.06802 14.432C8.91193 15.2759 10.0565 15.75 11.25 15.75C12.4435 15.75 13.5881 15.2759 14.432 14.432C15.2759 13.5881 15.75 12.4435 15.75 11.25C15.75 10.0565 15.2759 8.91193 14.432 8.06802C13.5881 7.22411 12.4435 6.75 11.25 6.75C10.0565 6.75 8.91193 7.22411 8.06802 8.06802C7.22411 8.91193 6.75 10.0565 6.75 11.25Z" stroke="var(--stroke-0, #0D081D)" stroke-width="1.5" stroke-linecap="round" stroke-linejoin="round"/>
</svg>
