<svg preserveAspectRatio="none" width="100%" height="100%" overflow="visible" style="display: block;" viewBox="0 0 18.046 18.0445" fill="none" xmlns="http://www.w3.org/2000/svg">
<path id="Vector" d="M2.88104 6.86704C2.92661 6.81976 2.96242 6.76397 2.98643 6.70286C3.01043 6.64174 3.02217 6.5765 3.02096 6.51085C3.01975 6.44519 3.00563 6.38042 2.97939 6.32023C2.95315 6.26004 2.91531 6.20561 2.86804 6.16004C2.82076 6.11447 2.76497 6.07866 2.70386 6.05465C2.64274 6.03064 2.5775 6.01891 2.51185 6.02011C2.44619 6.02132 2.38142 6.03545 2.32123 6.06169C2.26104 6.08792 2.20661 6.12576 2.16104 6.17304L0.420038 7.97904C0.150567 8.25859 0 8.63175 0 9.02004C0 9.40832 0.150567 9.78148 0.420038 10.061L2.16004 11.868C2.25207 11.9635 2.37826 12.0185 2.51085 12.021C2.64343 12.0234 2.77156 11.9731 2.86704 11.881C2.96252 11.789 3.01752 11.6628 3.01996 11.5302C3.0224 11.3976 2.97207 11.2695 2.88004 11.174L1.14004 9.36704C1.05021 9.27385 1.00003 9.14947 1.00003 9.02004C1.00003 8.89061 1.05021 8.76622 1.14004 8.67304L2.88104 6.86704ZM6.17304 2.16004C6.12576 2.20561 6.08792 2.26004 6.06169 2.32023C6.03545 2.38042 6.02132 2.44519 6.02011 2.51084C6.01891 2.5765 6.03064 2.64174 6.05465 2.70286C6.07866 2.76397 6.11447 2.81976 6.16004 2.86704C6.25207 2.96252 6.37826 3.01752 6.51085 3.01996C6.5765 3.02117 6.64174 3.00943 6.70286 2.98543C6.76397 2.96142 6.81976 2.92561 6.86704 2.88004L8.67304 1.14004C8.76622 1.05021 8.89061 1.00003 9.02004 1.00003C9.14947 1.00003 9.27385 1.05021 9.36704 1.14004L11.173 2.88004C11.2694 2.96633 11.3955 3.01191 11.5248 3.0072C11.654 3.00249 11.7765 2.94785 11.8663 2.85477C11.9562 2.7617 12.0064 2.63742 12.0066 2.50805C12.0067 2.37869 11.9567 2.2543 11.867 2.16104L10.061 0.420037C9.78148 0.150567 9.40832 0 9.02004 0C8.63175 0 8.25859 0.150567 7.97904 0.420037L6.17304 2.16004ZM15.88 6.17204C15.788 6.07656 15.6618 6.02155 15.5292 6.01911C15.3966 6.01668 15.2685 6.06701 15.173 6.15904C15.0776 6.25107 15.0226 6.37726 15.0201 6.50985C15.0177 6.64243 15.068 6.77056 15.16 6.86604L16.906 8.67704C16.9962 8.77027 17.0465 8.89487 17.0465 9.02454C17.0465 9.15421 16.9962 9.2788 16.906 9.37204L15.161 11.172C15.0699 11.2675 15.0203 11.3951 15.0228 11.527C15.0254 11.6589 15.08 11.7844 15.1747 11.8763C15.2695 11.9681 15.3966 12.0188 15.5286 12.0172C15.6605 12.0157 15.7865 11.9621 15.879 11.868L17.623 10.068C17.8938 9.78873 18.0455 9.41515 18.046 9.02614C18.0466 8.63714 17.896 8.26313 17.626 7.98304L15.88 6.17204ZM6.86704 15.16C6.81976 15.1145 6.76397 15.0787 6.70286 15.0547C6.64174 15.0306 6.5765 15.0189 6.51085 15.0201C6.44519 15.0213 6.38042 15.0354 6.32023 15.0617C6.26004 15.0879 6.20561 15.1258 6.16004 15.173C6.11447 15.2203 6.07866 15.2761 6.05465 15.3372C6.03064 15.3983 6.01891 15.4636 6.02011 15.5292C6.02132 15.5949 6.03545 15.6597 6.06169 15.7198C6.08792 15.78 6.12576 15.8345 6.17304 15.88L7.98504 17.625C8.26508 17.8947 8.63888 18.0451 9.02764 18.0445C9.41641 18.044 9.78977 17.8925 10.069 17.622L11.868 15.879C11.9158 15.8335 11.954 15.7789 11.9806 15.7185C12.0071 15.6581 12.0214 15.593 12.0227 15.5271C12.024 15.4611 12.0122 15.3955 11.988 15.3341C11.9639 15.2727 11.9278 15.2167 11.8818 15.1693C11.8359 15.122 11.781 15.0841 11.7204 15.0581C11.6598 15.032 11.5946 15.0181 11.5287 15.0174C11.4627 15.0166 11.3972 15.0289 11.336 15.0536C11.2748 15.0782 11.2191 15.1147 11.172 15.161L9.37304 16.904C9.27985 16.9939 9.15547 17.044 9.02604 17.044C8.89661 17.044 8.77222 16.9939 8.67904 16.904L6.86704 15.16ZM7.02104 5.02004C6.4906 5.02004 5.9819 5.23075 5.60682 5.60582C5.23175 5.9809 5.02104 6.4896 5.02104 7.02004V11.02C5.02104 11.5505 5.23175 12.0592 5.60682 12.4343C5.9819 12.8093 6.4906 13.02 7.02104 13.02H11.021C11.5515 13.02 12.0602 12.8093 12.4353 12.4343C12.8103 12.0592 13.021 11.5505 13.021 11.02V7.02004C13.021 6.4896 12.8103 5.9809 12.4353 5.60582C12.0602 5.23075 11.5515 5.02004 11.021 5.02004H7.02104ZM6.02104 7.02004C6.02104 6.75482 6.12639 6.50047 6.31393 6.31293C6.50147 6.12539 6.75582 6.02004 7.02104 6.02004H11.021C11.2863 6.02004 11.5406 6.12539 11.7281 6.31293C11.9157 6.50047 12.021 6.75482 12.021 7.02004V11.02C12.021 11.2853 11.9157 11.5396 11.7281 11.7271C11.5406 11.9147 11.2863 12.02 11.021 12.02H7.02104C6.75582 12.02 6.50147 11.9147 6.31393 11.7271C6.12639 11.5396 6.02104 11.2853 6.02104 11.02V7.02004Z" fill="var(--fill-0, #0D081D)"/>
</svg>
