<svg preserveAspectRatio="none" width="100%" height="100%" overflow="visible" style="display: block;" viewBox="0 0 23.9887 24.0001" fill="none" xmlns="http://www.w3.org/2000/svg">
<path id="Vector" d="M20.782 3.83205C20.681 3.72705 20.585 3.61905 20.481 3.51505C20.3777 3.41305 20.271 3.31238 20.161 3.21305C17.9475 1.14064 15.0263 -0.0085967 11.994 4.84229e-05C10.4175 -0.00397409 8.85588 0.304507 7.39932 0.90766C5.94275 1.51081 4.62018 2.39668 3.50804 3.51405C-1.06796 8.09005 -1.16596 15.47 3.20704 20.168C3.30504 20.276 3.40504 20.3827 3.50704 20.488C3.61104 20.591 3.71704 20.688 3.82404 20.788C6.0396 22.8591 8.96126 24.0077 11.994 24C15.2 24 18.214 22.753 20.481 20.488C25.057 15.912 25.154 8.53205 20.782 3.83205ZM4.12704 4.13305C5.15796 3.09695 6.38401 2.27547 7.73433 1.71608C9.08464 1.1567 10.5324 0.870505 11.994 0.874048C14.819 0.874048 17.484 1.92205 19.544 3.83205L18.543 4.83405C16.757 3.19399 14.4189 2.28647 11.994 2.29205C10.7185 2.28834 9.45492 2.53781 8.2765 3.026C7.09808 3.51419 6.02827 4.2314 5.12904 5.13605C4.22469 6.03524 3.50774 7.10493 3.01973 8.28316C2.53172 9.4614 2.28234 10.7248 2.28604 12C2.28604 14.448 3.18604 16.753 4.82804 18.549L3.82504 19.55C-0.206957 15.191 -0.106957 8.36705 4.12704 4.13305ZM17.925 5.45105V5.45305L16.91 6.46705C15.5593 5.25577 13.8083 4.58686 11.994 4.58905C11.0206 4.58648 10.0563 4.77704 9.15705 5.1497C8.25777 5.52235 7.44134 6.0697 6.75504 6.76005C6.0644 7.44638 5.51679 8.26293 5.14396 9.1624C4.77113 10.0619 4.58047 11.0264 4.58304 12C4.58037 13.8133 5.24899 15.5635 6.46004 16.913L5.44604 17.929C3.97003 16.3078 3.15481 14.1925 3.16104 12C3.15782 10.8397 3.38491 9.69016 3.82915 8.61817C4.2734 7.54618 4.92597 6.57301 5.74904 5.75505C6.567 4.93197 7.54018 4.2794 8.61217 3.83516C9.68416 3.39091 10.8337 3.16382 11.994 3.16705C14.207 3.16705 16.295 3.97605 17.925 5.45105ZM18.531 12C18.531 13.745 17.85 15.387 16.615 16.622C15.38 17.857 13.74 18.538 11.994 18.538C10.4125 18.5383 8.88515 17.962 7.69804 16.917L7.69704 16.913C7.58704 16.819 7.47704 16.725 7.37304 16.622C7.27144 16.517 7.17371 16.4082 7.08004 16.296C6.03302 15.1102 5.45671 13.5819 5.46004 12C5.46004 10.254 6.13904 8.61305 7.37404 7.37905C7.97961 6.77079 8.69966 6.28848 9.49261 5.95997C10.2856 5.63146 11.1357 5.46325 11.994 5.46505C13.593 5.46505 15.099 6.04105 16.289 7.08505C16.4 7.18105 16.513 7.27505 16.615 7.38005C16.7177 7.48472 16.816 7.59272 16.91 7.70405C17.9566 8.89019 18.5332 10.4182 18.531 12ZM7.07804 17.534C8.42836 18.7455 10.18 19.4147 11.994 19.413C12.9678 19.4158 13.9323 19.225 14.8317 18.8518C15.7311 18.4786 16.5473 17.9304 17.233 17.239C17.9242 16.5533 18.4722 15.737 18.8452 14.8376C19.2183 13.9382 19.4089 12.9737 19.406 12C19.4078 10.1862 18.7398 8.43556 17.53 7.08405L18.543 6.07205C20.018 7.69354 20.8331 9.8081 20.828 12C20.8313 13.1607 20.6041 14.3104 20.1597 15.3826C19.7152 16.4548 19.0624 17.4281 18.239 18.246C17.4214 19.0696 16.4483 19.7224 15.3762 20.1667C14.3042 20.611 13.1545 20.8378 11.994 20.834C9.8014 20.8396 7.68605 20.0245 6.06404 18.549L7.07804 17.534ZM19.861 19.867C18.8304 20.9034 17.6044 21.725 16.254 22.2842C14.9036 22.8435 13.4556 23.1293 11.994 23.125C9.19307 23.133 6.49379 22.0759 4.44304 20.168L5.44704 19.167C7.2326 20.808 9.57102 21.7156 11.996 21.709C13.2717 21.7125 14.5354 21.4627 15.7138 20.9742C16.8922 20.4856 17.962 19.7681 18.861 18.863C19.7653 17.964 20.4822 16.8944 20.9702 15.7164C21.4582 14.5383 21.7076 13.2752 21.704 12C21.7101 9.57523 20.8021 7.2372 19.161 5.45205L20.162 4.45005C24.193 8.80905 24.097 15.632 19.861 19.867Z" fill="var(--fill-0, #0D081D)"/>
</svg>
