<svg preserveAspectRatio="none" width="100%" height="100%" overflow="visible" style="display: block;" viewBox="0 0 20 15.3963" fill="none" xmlns="http://www.w3.org/2000/svg">
<g id="Group">
<path id="Vector" d="M0.750017 5.06125C1.88359 3.71019 3.29952 2.624 4.89814 1.87914C6.49675 1.13428 8.23919 0.748859 10.0028 0.750003C11.7664 0.751147 13.5084 1.13883 15.106 1.88576C16.7037 2.63269 18.1182 3.72072 19.25 5.07325" stroke="var(--stroke-0, #A149E9)" stroke-width="1.5" stroke-linecap="round" stroke-linejoin="round"/>
<path id="Vector_2" d="M3.64002 8.03725C4.4195 7.10832 5.39313 6.36155 6.49236 5.8495C7.5916 5.33745 8.78971 5.07258 10.0024 5.07354C11.215 5.07449 12.4127 5.34124 13.5111 5.85502C14.6095 6.36879 15.582 7.1171 16.36 8.04725M6.55502 11.0763C6.97728 10.5732 7.50467 10.1688 8.10006 9.89144C8.69545 9.61413 9.34438 9.47066 10.0012 9.47114C10.658 9.47162 11.3067 9.61602 11.9017 9.8942C12.4967 10.1724 13.0235 10.5776 13.445 11.0813" stroke="var(--stroke-0, #A149E9)" stroke-width="1.5" stroke-linecap="round" stroke-linejoin="round"/>
<path id="Vector_3" d="M10 15.3963C10.7981 15.3963 11.445 14.7493 11.445 13.9513C11.445 13.1532 10.7981 12.5063 10 12.5063C9.20197 12.5063 8.55502 13.1532 8.55502 13.9513C8.55502 14.7493 9.20197 15.3963 10 15.3963Z" fill="var(--fill-0, #A149E9)"/>
</g>
</svg>
