<svg preserveAspectRatio="none" width="100%" height="100%" overflow="visible" style="display: block;" viewBox="0 0 20.3772 16.1503" fill="none" xmlns="http://www.w3.org/2000/svg">
<g id="Group">
<path id="Vector" d="M1.03479 10.0048C0.684855 9.42186 0.5 8.75474 0.5 8.07482C0.5 7.3949 0.684855 6.72777 1.03479 6.14482C1.14233 5.96533 1.28623 5.81034 1.45724 5.68978C1.62826 5.56923 1.8226 5.48579 2.02779 5.44482L3.72079 5.10582C3.82175 5.08582 3.91281 5.03182 3.97879 4.95282L6.04679 2.46982C7.22879 1.04982 7.82079 0.340816 8.34779 0.531816C8.87479 0.722816 8.87679 1.64682 8.87679 3.49482V12.6568C8.87679 14.5038 8.87679 15.4268 8.34879 15.6188C7.82179 15.8088 7.22979 15.0998 6.04779 13.6808L3.97679 11.1968C3.91107 11.118 3.82039 11.064 3.71979 11.0438L2.02679 10.7048C1.8216 10.6638 1.62726 10.5804 1.45624 10.4599C1.28523 10.3393 1.14233 10.1843 1.03479 10.0048Z" stroke="var(--stroke-0, #A149E9)"/>
<path id="Vector_2" d="M13.4128 4.53882C14.3458 5.47181 14.8722 6.73579 14.8773 8.05525C14.8823 9.37472 14.3656 10.6427 13.4398 11.5828M17.5338 2.41782C19.0266 3.91048 19.8689 5.9327 19.8772 8.04375C19.8854 10.1548 19.0589 12.1835 17.5778 13.6878" stroke="var(--stroke-0, #A149E9)" stroke-linecap="round"/>
</g>
</svg>
