<svg preserveAspectRatio="none" width="100%" height="100%" overflow="visible" style="display: block;" viewBox="0 0 20 20" fill="none" xmlns="http://www.w3.org/2000/svg">
<path id="Vector" d="M17 0H3C2.20459 0.000794215 1.44199 0.31712 0.879557 0.879557C0.31712 1.44199 0.000794215 2.20459 0 3V17C0.000794215 17.7954 0.31712 18.558 0.879557 19.1204C1.44199 19.6829 2.20459 19.9992 3 20H17C17.182 20 17.362 19.978 17.54 19.945C17.6053 19.9317 17.6697 19.916 17.733 19.898C17.9155 19.8524 18.0933 19.7898 18.264 19.711C18.3473 19.6703 18.429 19.626 18.509 19.578C18.584 19.534 18.66 19.492 18.731 19.442L18.749 19.431L18.77 19.413C18.784 19.402 18.8 19.396 18.813 19.383C18.819 19.3763 18.824 19.369 18.828 19.361C19.1908 19.0832 19.485 18.7259 19.6882 18.3166C19.8914 17.9073 19.998 17.4569 20 17V3C19.9992 2.20459 19.6829 1.44199 19.1204 0.879557C18.558 0.31712 17.7954 0.000794215 17 0ZM17.575 18.905C17.389 18.9646 17.1953 18.9966 17 19H3C2.46981 18.9992 1.96156 18.7882 1.58666 18.4133C1.21176 18.0384 1.00079 17.5302 1 17V12.275L4.763 8.513C5.09154 8.18581 5.53633 8.00211 6 8.00211C6.46367 8.00211 6.90846 8.18581 7.237 8.513L10.642 11.917L10.646 11.924L17.616 18.893L17.575 18.905ZM19 17C19 17.516 18.798 17.982 18.477 18.337L11.708 11.569L12.764 10.514C13.0966 10.1954 13.5394 10.0176 14 10.0176C14.4606 10.0176 14.9034 10.1954 15.236 10.514L19 14.277V17ZM19 12.863L15.943 9.807C15.4274 9.29222 14.7286 9.00309 14 9.00309C13.2714 9.00309 12.5726 9.29222 12.057 9.807L11 10.862L7.944 7.806C7.42793 7.29134 6.72884 7.00233 6 7.00233C5.27116 7.00233 4.57207 7.29134 4.056 7.806L1 10.86V3C1.00079 2.46981 1.21176 1.96156 1.58666 1.58666C1.96156 1.21176 2.46981 1.00079 3 1H17C17.5302 1.00079 18.0384 1.21176 18.4133 1.58666C18.7882 1.96156 18.9992 2.46981 19 3V12.863ZM11.5 4C11.1022 4 10.7206 4.15804 10.4393 4.43934C10.158 4.72064 10 5.10218 10 5.5C10 5.89782 10.158 6.27936 10.4393 6.56066C10.7206 6.84196 11.1022 7 11.5 7C11.8978 7 12.2794 6.84196 12.5607 6.56066C12.842 6.27936 13 5.89782 13 5.5C13 5.10218 12.842 4.72064 12.5607 4.43934C12.2794 4.15804 11.8978 4 11.5 4ZM11.5 6C11.3674 6 11.2402 5.94732 11.1464 5.85355C11.0527 5.75979 11 5.63261 11 5.5C11 5.36739 11.0527 5.24021 11.1464 5.14645C11.2402 5.05268 11.3674 5 11.5 5C11.6326 5 11.7598 5.05268 11.8536 5.14645C11.9473 5.24021 12 5.36739 12 5.5C12 5.63261 11.9473 5.75979 11.8536 5.85355C11.7598 5.94732 11.6326 6 11.5 6Z" fill="var(--fill-0, #0C081C)"/>
</svg>
