<?xml version="1.0" encoding="UTF-8"?>
<svg id="_Слой_2" data-name="Слой 2" xmlns="http://www.w3.org/2000/svg" viewBox="0 0 353.11 81.17">
  <g id="_Слой_1-2" data-name="Слой 1">
    <g>
      <path d="M0,0h17.66s61.29,73.88,69.56,71.1c9.37-3.15,0-71.1,0-71.1h12.08v81.17h-18.25L15.52,14.17c-1.25-1.28-3.43-.39-3.43,1.4v65.59H0V0Z"/>
      <path d="M214,0l-44.08,81.17h-14.34L111.38,0h12.68s27.35,64.84,37.8,70.27c.39.2,1.39.21,1.78,0C173.98,64.69,201.44,0,201.44,0h12.56Z"/>
      <path d="M247.65,0s33.82,66.71,41.95,66.71c9.06,0,41.94-66.71,41.94-66.71h21.57v81.17h-12.09s.46-51.58,0-68.99c-.02-.7-.57-1.28-1.28-1.28h0c-.68,0-1.31.35-1.68.92l-44.74,69.35h-7.57L241.01,11.81c-.37-.57-1-.92-1.68-.92h0c-.64,0-1.14.52-1.16,1.16-.47,17.53,0,69.11,0,69.11h-12.09V0h21.57Z"/>
    </g>
  </g>
</svg>