<?xml version="1.0" encoding="UTF-8"?>
<svg xmlns="http://www.w3.org/2000/svg" viewBox="0 0 142.81 113.5" fill="currentColor">
  <g>
    <path d="M8.72,113.5H0s0-104.78,0-104.78h8.72s0,104.78,0,104.78Z"/>
    <path d="M131.36,0l-3.45,8.72H0S0,0,0,0h131.36Z"/>
    <path d="M80.94,100.55c.47.27,1.65.28,2.11,0,12.27-7.29,44.85-91.83,44.85-91.83H36.09s32.45,84.74,44.85,91.83Z"/>
    <path d="M21.92,113.5h50.1c.66,0,1.08-.71.77-1.29L25.75,25.83c-1.24-2.28-4.71-1.4-4.71,1.2v85.6c0,.48.39.87.87.87Z"/>
    <polygon points="90.5 113.5 142.81 113.5 142.81 17.19 90.5 113.5"/>
  </g>
</svg>
