<?xml version="1.0" encoding="UTF-8"?>
<svg id="_Слой_2" data-name="Слой 2" xmlns="http://www.w3.org/2000/svg" viewBox="0 0 292.43 255">
  <defs>
    <style>
      .cls-1 {
        fill: none;
        stroke: #e30613;
        stroke-miterlimit: 10;
      }
    </style>
  </defs>
  <g id="_Слой_1-2" data-name="Слой 1">
    <g>
      <path d="M83.53,113.5h-8.72s0-104.78,0-104.78h8.72s0,104.78,0,104.78Z"/>
      <path d="M206.17,0l-3.45,8.72h-127.9s0-8.72,0-8.72h131.36Z"/>
      <path d="M155.75,100.55c.47.27,1.65.28,2.11,0,12.27-7.29,44.85-91.83,44.85-91.83h-91.81s32.45,84.74,44.85,91.83Z"/>
      <path d="M96.73,113.5h50.1c.66,0,1.08-.71.77-1.29L100.56,25.83c-1.24-2.28-4.71-1.4-4.71,1.2v85.6c0,.48.39.87.87.87Z"/>
      <polygon points="165.31 113.5 217.62 113.5 217.62 17.19 165.31 113.5"/>
    </g>
    <line class="cls-1" x1="208.55" y1="13.06" x2="208.55" y2="13.06"/>
    <g>
      <path d="M0,129.07h11.1s38.53,46.44,43.72,44.69c5.89-1.98,0-44.69,0-44.69h7.6v51.02h-11.47l-41.2-42.11c-.79-.81-2.16-.25-2.16.88v41.23H0v-51.02Z"/>
      <path d="M92.29,180.09h-7.6v-51.02h7.6v51.02Z"/>
      <path d="M172.88,129.07l-27.71,51.02h-9.01l-27.78-51.02h7.97s17.19,40.76,23.76,44.17c.25.13.87.13,1.12,0,6.5-3.5,23.76-44.17,23.76-44.17h7.9Z"/>
      <path d="M192.84,180.09h-7.6v-51.02h7.6v51.02Z"/>
      <path d="M226.14,129.07s21.26,41.93,26.37,41.94c5.69,0,26.37-41.94,26.37-41.94h13.56v51.02h-7.6v-43.37c0-.44-.36-.8-.8-.8h0c-.43,0-.83.22-1.06.58l-28.12,43.6h-4.76l-28.12-43.6c-.23-.36-.63-.58-1.06-.58h0c-.4,0-.73.33-.73.73v43.45h-7.6v-51.02h13.56Z"/>
    </g>
    <line class="cls-1" x1="202.96" y1="254.5" x2="202.96" y2="254.5"/>
    <line class="cls-1" x1="99.67" y1="166.5" x2="99.67" y2="166.5"/>
  </g>
</svg>