<?xml version="1.0" encoding="UTF-8"?> <svg xmlns="http://www.w3.org/2000/svg" width="40" height="40" viewBox="0 0 40 40" fill="none"><path d="M20 28H28V30H20C14.477 30 10 25.523 10 20C10 14.477 14.477 10 20 10C25.523 10 30 14.477 30 20C30.0029 22.1642 29.3008 24.2704 28 26H25.292C26.6963 24.7616 27.6217 23.0698 27.907 21.2193C28.1924 19.3689 27.8197 17.4769 26.8538 15.873C25.8879 14.269 24.39 13.0546 22.6209 12.4413C20.8519 11.828 18.9237 11.8547 17.1723 12.5166C15.4209 13.1785 13.9571 14.4338 13.0358 16.0638C12.1146 17.6938 11.7943 19.5954 12.1307 21.4372C12.467 23.2791 13.4388 24.9447 14.8767 26.1439C16.3147 27.343 18.1277 27.9999 20 28ZM20 18C19.4696 18 18.9609 17.7893 18.5858 17.4142C18.2107 17.0391 18 16.5304 18 16C18 15.4696 18.2107 14.9609 18.5858 14.5858C18.9609 14.2107 19.4696 14 20 14C20.5304 14 21.0391 14.2107 21.4142 14.5858C21.7893 14.9609 22 15.4696 22 16C22 16.5304 21.7893 17.0391 21.4142 17.4142C21.0391 17.7893 20.5304 18 20 18ZM16 22C15.4696 22 14.9609 21.7893 14.5858 21.4142C14.2107 21.0391 14 20.5304 14 20C14 19.4696 14.2107 18.9609 14.5858 18.5858C14.9609 18.2107 15.4696 18 16 18C16.5304 18 17.0391 18.2107 17.4142 18.5858C17.7893 18.9609 18 19.4696 18 20C18 20.5304 17.7893 21.0391 17.4142 21.4142C17.0391 21.7893 16.5304 22 16 22ZM24 22C23.4696 22 22.9609 21.7893 22.5858 21.4142C22.2107 21.0391 22 20.5304 22 20C22 19.4696 22.2107 18.9609 22.5858 18.5858C22.9609 18.2107 23.4696 18 24 18C24.5304 18 25.0391 18.2107 25.4142 18.5858C25.7893 18.9609 26 19.4696 26 20C26 20.5304 25.7893 21.0391 25.4142 21.4142C25.0391 21.7893 24.5304 22 24 22ZM20 26C19.4696 26 18.9609 25.7893 18.5858 25.4142C18.2107 25.0391 18 24.5304 18 24C18 23.4696 18.2107 22.9609 18.5858 22.5858C18.9609 22.2107 19.4696 22 20 22C20.5304 22 21.0391 22.2107 21.4142 22.5858C21.7893 22.9609 22 23.4696 22 24C22 24.5304 21.7893 25.0391 21.4142 25.4142C21.0391 25.7893 20.5304 26 20 26Z" fill="#0D081D"></path></svg> 