<?xml version="1.0" encoding="UTF-8"?> <svg xmlns="http://www.w3.org/2000/svg" width="40" height="40" viewBox="0 0 40 40" fill="none"><path d="M20.001 9.5V12.5M20.001 27.5V30.5M30.501 20H27.501M12.501 20H9.50098M27.425 12.576L25.304 14.697M14.697 25.304L12.576 27.425M27.425 27.425L25.304 25.304M14.697 14.697L12.576 12.576M15.501 20C15.501 21.1935 15.9751 22.3381 16.819 23.182C17.6629 24.0259 18.8075 24.5 20.001 24.5C21.1945 24.5 22.339 24.0259 23.183 23.182C24.0269 22.3381 24.501 21.1935 24.501 20C24.501 18.8065 24.0269 17.6619 23.183 16.818C22.339 15.9741 21.1945 15.5 20.001 15.5C18.8075 15.5 17.6629 15.9741 16.819 16.818C15.9751 17.6619 15.501 18.8065 15.501 20Z" stroke="#0D081D" stroke-width="1.5" stroke-linecap="round" stroke-linejoin="round"></path></svg> 