<svg xmlns="http://www.w3.org/2000/svg" viewBox="0 0 1600 1200" fill="none">
  <rect width="1600" height="1200" fill="#060A11"/>
  <g opacity="0.72">
    <path d="M-80 1042C168 932 332 814 484 640C612 492 674 356 794 232C936 86 1088 58 1518 86" stroke="url(#a)" stroke-width="3"/>
    <path d="M28 1162C252 1028 446 914 610 712C748 540 792 376 948 232C1082 108 1242 82 1636 126" stroke="url(#b)" stroke-width="2.5"/>
    <path d="M-56 884C174 786 338 706 470 544C594 394 654 274 772 146C884 24 1024 -6 1426 18" stroke="url(#c)" stroke-width="2"/>
  </g>
  <g opacity="0.26">
    <ellipse cx="452" cy="690" rx="298" ry="298" stroke="#D8E4FF"/>
    <ellipse cx="1128" cy="472" rx="446" ry="446" stroke="#D8E4FF"/>
  </g>
  <defs>
    <linearGradient id="a" x1="-80" y1="564" x2="1518" y2="564" gradientUnits="userSpaceOnUse">
      <stop stop-color="#fff" stop-opacity="0"/>
      <stop offset="0.46" stop-color="#EFF4FF" stop-opacity="0.72"/>
      <stop offset="1" stop-color="#fff" stop-opacity="0"/>
    </linearGradient>
    <linearGradient id="b" x1="28" y1="644" x2="1636" y2="644" gradientUnits="userSpaceOnUse">
      <stop stop-color="#fff" stop-opacity="0"/>
      <stop offset="0.56" stop-color="#D7E3FF" stop-opacity="0.56"/>
      <stop offset="1" stop-color="#fff" stop-opacity="0"/>
    </linearGradient>
    <linearGradient id="c" x1="-56" y1="442" x2="1426" y2="442" gradientUnits="userSpaceOnUse">
      <stop stop-color="#fff" stop-opacity="0"/>
      <stop offset="0.5" stop-color="#CBD8FF" stop-opacity="0.38"/>
      <stop offset="1" stop-color="#fff" stop-opacity="0"/>
    </linearGradient>
  </defs>
</svg>
