<svg xmlns="http://www.w3.org/2000/svg" viewBox="0 0 1600 1200" fill="none">
  <rect width="1600" height="1200" fill="#070B12"/>
  <path d="M220 182L690 122L998 268L900 630L410 676L178 468L220 182Z" fill="url(#a)" fill-opacity="0.45"/>
  <path d="M854 408L1312 356L1440 622L1212 950L738 914L664 646L854 408Z" fill="url(#b)" fill-opacity="0.4"/>
  <path d="M248 208L674 156L950 286L866 596L438 640L222 452L248 208Z" stroke="url(#c)" stroke-width="2"/>
  <path d="M886 432L1282 390L1384 622L1180 896L780 866L716 642L886 432Z" stroke="url(#d)" stroke-width="2"/>
  <defs>
    <linearGradient id="a" x1="178" y1="122" x2="998" y2="676" gradientUnits="userSpaceOnUse">
      <stop stop-color="#3A414D"/>
      <stop offset="1" stop-color="#171C24"/>
    </linearGradient>
    <linearGradient id="b" x1="664" y1="356" x2="1440" y2="950" gradientUnits="userSpaceOnUse">
      <stop stop-color="#2E343F"/>
      <stop offset="1" stop-color="#141920"/>
    </linearGradient>
    <linearGradient id="c" x1="222" y1="156" x2="950" y2="640" gradientUnits="userSpaceOnUse">
      <stop stop-color="#E7EDFF" stop-opacity="0.06"/>
      <stop offset="0.5" stop-color="#E7EDFF" stop-opacity="0.26"/>
      <stop offset="1" stop-color="#E7EDFF" stop-opacity="0.06"/>
    </linearGradient>
    <linearGradient id="d" x1="716" y1="390" x2="1384" y2="896" gradientUnits="userSpaceOnUse">
      <stop stop-color="#E7EDFF" stop-opacity="0.04"/>
      <stop offset="0.5" stop-color="#E7EDFF" stop-opacity="0.22"/>
      <stop offset="1" stop-color="#E7EDFF" stop-opacity="0.04"/>
    </linearGradient>
  </defs>
</svg>
