<svg xmlns="http://www.w3.org/2000/svg" viewBox="0 0 1600 1200" fill="none">
  <rect width="1600" height="1200" fill="#070B12"/>
  <g opacity="0.65">
    <circle cx="176" cy="192" r="2" fill="#F4F7FF"/>
    <circle cx="234" cy="148" r="1.4" fill="#CFD8F7"/>
    <circle cx="318" cy="244" r="1.8" fill="#E8EEFF"/>
    <circle cx="412" cy="214" r="1.2" fill="#C7D3FA"/>
    <circle cx="486" cy="168" r="2.1" fill="#F4F7FF"/>
    <circle cx="560" cy="232" r="1.3" fill="#D7E0FD"/>
    <circle cx="648" cy="188" r="1.7" fill="#EFF4FF"/>
    <circle cx="742" cy="252" r="1.2" fill="#DCE6FF"/>
    <circle cx="832" cy="196" r="1.8" fill="#F4F7FF"/>
    <circle cx="918" cy="160" r="1.3" fill="#CFD8F7"/>
    <circle cx="996" cy="236" r="2" fill="#E8EEFF"/>
    <circle cx="1088" cy="204" r="1.2" fill="#DCE6FF"/>
    <circle cx="1164" cy="172" r="1.9" fill="#F4F7FF"/>
    <circle cx="1248" cy="226" r="1.4" fill="#CFD8F7"/>
    <circle cx="1324" cy="194" r="1.8" fill="#E8EEFF"/>
    <circle cx="1402" cy="244" r="1.1" fill="#D7E0FD"/>
    <circle cx="188" cy="418" r="1.1" fill="#CFD8F7"/>
    <circle cx="276" cy="476" r="2.2" fill="#F4F7FF"/>
    <circle cx="370" cy="432" r="1.4" fill="#DCE6FF"/>
    <circle cx="462" cy="500" r="1.8" fill="#EFF4FF"/>
    <circle cx="548" cy="448" r="1.2" fill="#CFD8F7"/>
    <circle cx="626" cy="522" r="2" fill="#F4F7FF"/>
    <circle cx="720" cy="470" r="1.3" fill="#DCE6FF"/>
    <circle cx="808" cy="426" r="1.8" fill="#EFF4FF"/>
    <circle cx="898" cy="508" r="1.2" fill="#CFD8F7"/>
    <circle cx="984" cy="458" r="2.1" fill="#F4F7FF"/>
    <circle cx="1068" cy="528" r="1.3" fill="#D7E0FD"/>
    <circle cx="1154" cy="442" r="1.9" fill="#EFF4FF"/>
    <circle cx="1242" cy="498" r="1.2" fill="#CFD8F7"/>
    <circle cx="1334" cy="452" r="2" fill="#F4F7FF"/>
    <circle cx="1420" cy="514" r="1.3" fill="#DCE6FF"/>
    <circle cx="208" cy="768" r="2.1" fill="#F4F7FF"/>
    <circle cx="292" cy="708" r="1.3" fill="#D7E0FD"/>
    <circle cx="386" cy="784" r="1.8" fill="#EFF4FF"/>
    <circle cx="470" cy="732" r="1.1" fill="#CFD8F7"/>
    <circle cx="562" cy="806" r="2.1" fill="#F4F7FF"/>
    <circle cx="650" cy="742" r="1.3" fill="#DCE6FF"/>
    <circle cx="740" cy="794" r="1.8" fill="#EFF4FF"/>
    <circle cx="828" cy="724" r="1.2" fill="#CFD8F7"/>
    <circle cx="916" cy="776" r="2" fill="#F4F7FF"/>
    <circle cx="1002" cy="714" r="1.4" fill="#D7E0FD"/>
    <circle cx="1094" cy="790" r="1.8" fill="#EFF4FF"/>
    <circle cx="1182" cy="734" r="1.2" fill="#CFD8F7"/>
    <circle cx="1270" cy="800" r="2" fill="#F4F7FF"/>
    <circle cx="1356" cy="742" r="1.3" fill="#DCE6FF"/>
  </g>
  <path d="M88 282C248 222 430 202 646 202C914 202 1178 258 1500 198" stroke="url(#a)" stroke-width="2"/>
  <path d="M126 856C376 796 636 764 946 774C1128 780 1290 810 1510 760" stroke="url(#b)" stroke-width="2"/>
  <defs>
    <linearGradient id="a" x1="88" y1="202" x2="1500" y2="202" gradientUnits="userSpaceOnUse">
      <stop stop-color="#fff" stop-opacity="0"/>
      <stop offset="0.52" stop-color="#DCE6FF" stop-opacity="0.34"/>
      <stop offset="1" stop-color="#fff" stop-opacity="0"/>
    </linearGradient>
    <linearGradient id="b" x1="126" y1="774" x2="1510" y2="774" gradientUnits="userSpaceOnUse">
      <stop stop-color="#fff" stop-opacity="0"/>
      <stop offset="0.52" stop-color="#DCE6FF" stop-opacity="0.26"/>
      <stop offset="1" stop-color="#fff" stop-opacity="0"/>
    </linearGradient>
  </defs>
</svg>
