<svg xmlns="http://www.w3.org/2000/svg" viewBox="0 0 1600 1000" fill="none">
  <defs>
    <linearGradient id="bg" x1="0" y1="0" x2="1600" y2="1000" gradientUnits="userSpaceOnUse">
      <stop stop-color="#09111f"/>
      <stop offset="0.55" stop-color="#050811"/>
      <stop offset="1" stop-color="#101a31"/>
    </linearGradient>
    <radialGradient id="glow1" cx="0" cy="0" r="1" gradientUnits="userSpaceOnUse" gradientTransform="translate(1180 180) rotate(118.8) scale(498.734 534.429)">
      <stop stop-color="#7EA5FF" stop-opacity=".42"/>
      <stop offset="1" stop-color="#7EA5FF" stop-opacity="0"/>
    </radialGradient>
    <radialGradient id="glow2" cx="0" cy="0" r="1" gradientUnits="userSpaceOnUse" gradientTransform="translate(420 180) rotate(91.3) scale(428.103 645.941)">
      <stop stop-color="#31529B" stop-opacity=".48"/>
      <stop offset="1" stop-color="#31529B" stop-opacity="0"/>
    </radialGradient>
    <linearGradient id="beam" x1="0" y1="0" x2="0" y2="1">
      <stop stop-color="#E7EEFF" stop-opacity=".4"/>
      <stop offset="1" stop-color="#E7EEFF" stop-opacity="0"/>
    </linearGradient>
  </defs>
  <rect width="1600" height="1000" rx="48" fill="url(#bg)"/>
  <rect width="1600" height="1000" rx="48" fill="url(#glow1)"/>
  <rect width="1600" height="1000" rx="48" fill="url(#glow2)"/>
  <g opacity=".22">
    <rect x="76" y="82" width="1180" height="730" rx="66" stroke="#D8E5FF"/>
    <rect x="486" y="204" width="1000" height="720" rx="66" stroke="#D8E5FF"/>
    <path d="M0 0H1600M0 100H1600M0 200H1600M0 300H1600M0 400H1600M0 500H1600M0 600H1600M0 700H1600M0 800H1600M0 900H1600" stroke="#D8E5FF" stroke-opacity=".16"/>
    <path d="M100 0V1000M200 0V1000M300 0V1000M400 0V1000M500 0V1000M600 0V1000M700 0V1000M800 0V1000M900 0V1000M1000 0V1000M1100 0V1000M1200 0V1000M1300 0V1000M1400 0V1000M1500 0V1000" stroke="#D8E5FF" stroke-opacity=".14"/>
  </g>
  <rect x="1024" y="-40" width="92" height="1080" rx="46" fill="url(#beam)" opacity=".42"/>
  <rect x="294" y="76" width="72" height="760" rx="36" fill="url(#beam)" opacity=".24"/>
  <rect x="272" y="744" width="1056" height="188" rx="94" fill="#86A7FF" opacity=".08"/>
  <rect x="468" y="360" width="664" height="260" rx="130" fill="#B2C7FF" opacity=".06"/>
</svg>
