<svg xmlns="http://www.w3.org/2000/svg" viewBox="0 0 1600 1000" fill="none">
  <defs>
    <linearGradient id="bg" x1="178" y1="38" x2="1442" y2="1000" gradientUnits="userSpaceOnUse">
      <stop stop-color="#04070E"/>
      <stop offset=".5" stop-color="#071226"/>
      <stop offset="1" stop-color="#04070E"/>
    </linearGradient>
    <linearGradient id="flow" x1="120" y1="880" x2="1460" y2="160" gradientUnits="userSpaceOnUse">
      <stop stop-color="#F5F7FF" stop-opacity=".02"/>
      <stop offset=".27" stop-color="#D8E4FF" stop-opacity=".5"/>
      <stop offset=".52" stop-color="#7FA2FF" stop-opacity=".22"/>
      <stop offset=".82" stop-color="#EEF2FF" stop-opacity=".08"/>
      <stop offset="1" stop-color="#EEF2FF" stop-opacity="0"/>
    </linearGradient>
    <radialGradient id="halo" cx="0" cy="0" r="1" gradientUnits="userSpaceOnUse" gradientTransform="translate(1116 222) rotate(109.618) scale(476.353 553.776)">
      <stop stop-color="#9EB8FF" stop-opacity=".32"/>
      <stop offset="1" stop-color="#9EB8FF" stop-opacity="0"/>
    </radialGradient>
  </defs>
  <rect width="1600" height="1000" rx="48" fill="url(#bg)"/>
  <rect width="1600" height="1000" rx="48" fill="url(#halo)"/>
  <g opacity=".8">
    <path d="M-110 872C134 760 276 662 412 540C548 418 646 292 842 204C1038 116 1248 140 1680 32" stroke="url(#flow)" stroke-width="74" stroke-linecap="round"/>
    <path d="M-140 1010C150 874 332 756 482 612C632 468 730 344 950 248C1170 152 1332 176 1710 84" stroke="url(#flow)" stroke-width="28" stroke-linecap="round" opacity=".9"/>
    <path d="M118 1100C326 872 546 736 698 560C850 384 918 268 1092 164" stroke="#DCE7FF" stroke-opacity=".14" stroke-width="2"/>
    <path d="M0 804C238 706 404 624 538 516C672 408 770 286 980 196" stroke="#DCE7FF" stroke-opacity=".1" stroke-width="2"/>
  </g>
  <rect x="112" y="118" width="452" height="132" rx="66" fill="#0B1427" opacity=".34"/>
  <rect x="1044" y="170" width="176" height="176" rx="52" fill="#0B1427" opacity=".36"/>
</svg>
