<?xml version="1.0" encoding="UTF-8"?> <svg xmlns="http://www.w3.org/2000/svg" viewBox="0 0 100 100" fill-rule="evenodd"><path d="m69.469 62.48h11.758c0.86328 0 1.5625 0.69922 1.5625 1.5625v1.5625h14.059c0.56641 0 1.0898 0.30859 1.3672 0.80469 0.27344 0.49609 0.25781 1.1055-0.042969 1.5859l-3.3867 5.4219 3.3867 5.4219c0.30078 0.48047 0.31641 1.0898 0.042969 1.5859-0.27344 0.49609-0.79688 0.80469-1.3672 0.80469h-15.621c-0.86328 0-1.5625-0.69922-1.5625-1.5625v-1.5625h-59.355v1.5625c0 0.86328-0.69922 1.5625-1.5625 1.5625h-15.621c-0.56641 0-1.0898-0.30859-1.3672-0.80469-0.27344-0.49609-0.25781-1.1055 0.042969-1.5859l3.3867-5.4219-3.3867-5.4219c-0.30078-0.48047-0.31641-1.0898-0.042969-1.5859 0.27344-0.49609 0.79688-0.80469 1.3672-0.80469h14.059v-1.5625c0-0.86328 0.69922-1.5625 1.5625-1.5625h11.758l-1.1641-7.3477-7.4844-14.688c-0.39062-0.76953-0.085938-1.7109 0.68359-2.1016l14.688-7.4844 11.656-11.656c0.60938-0.60938 1.5977-0.60938 2.2109 0l11.656 11.656 14.688 7.4844c0.76953 0.39062 1.0742 1.332 0.68359 2.1016l-7.4844 14.688-1.1641 7.3477zm-38.473 3.125h-10.688v9.3711h59.355v-9.3711h-10.688l-0.92187 5.8086c-0.13672 0.85156-0.93359 1.4336-1.7891 1.2969l-16.281-2.5781-16.281 2.5781c-0.85156 0.13672-1.6523-0.44531-1.7891-1.2969l-0.92187-5.8086zm35.105-1.832 1.4844-9.375c0.027343-0.16016 0.078124-0.32031 0.15234-0.46484l6.8867-13.516-13.516-6.8867c-0.14453-0.074219-0.28125-0.17188-0.39453-0.28906l-10.727-10.727-10.727 10.727c-0.11719 0.11719-0.25 0.21094-0.39453 0.28906l-13.516 6.8867 6.8867 13.516c0.074219 0.14453 0.125 0.30469 0.15234 0.46484l1.4844 9.375c0.003906 0.015624 0.003906 0.03125 0.007812 0.046874l0.87891 5.5625 14.984-2.375c0.16016-0.027343 0.32812-0.027343 0.48828 0l14.984 2.375 0.87891-5.5625c0.003906-0.015624 0.003906-0.03125 0.007813-0.046874zm16.688 4.957v9.3711h11.238l-2.4102-3.8594c-0.31641-0.50781-0.31641-1.1484 0-1.6562l2.4102-3.8594h-11.238zm-65.605 0h-11.238l2.4102 3.8594c0.31641 0.50781 0.31641 1.1484 0 1.6562l-2.4102 3.8594h11.238z" fill-rule="evenodd" fill="#0c091c"></path></svg> 