<?xml version="1.0" encoding="UTF-8"?> <svg xmlns="http://www.w3.org/2000/svg" viewBox="0 0 100 100" fill-rule="evenodd"><path d="m50.039 14.836h34.613-0.003906c1.2109-0.15625 2.4219 0.25781 3.2812 1.1172 0.86328 0.85938 1.2812 2.0703 1.1289 3.2773 0.003906 20.508 0.003906 41.016 0 61.523 0.15625 1.207-0.25781 2.418-1.1172 3.2812-0.85938 0.86328-2.0703 1.2773-3.2773 1.1289h-69.316c-1.207 0.15234-2.418-0.25781-3.2812-1.1172-0.85938-0.85938-1.2773-2.0703-1.1289-3.2773-0.003906-20.508-0.003906-41.016 0-61.523-0.15234-1.207 0.25781-2.4219 1.1211-3.2812 0.85938-0.86328 2.0664-1.2812 3.2773-1.1289h34.703zm3.9062 46.844c0.32031 0.015624 0.58594 0.039062 0.85547 0.039062 3.5391 0.003906 7.0781 0.015625 10.621 0 2.1523 0.0625 4.2305-0.76953 5.75-2.293 1.5195-1.5234 2.3398-3.6055 2.2734-5.7578 0.011719-2.4414 0.011719-4.8828 0-7.3242 0.070313-2.1641-0.75781-4.2656-2.2969-5.793-1.5352-1.5312-3.6367-2.3516-5.8047-2.2695-3.5078-0.011719-7.0195-0.003906-10.527 0-0.28906 0-0.58203 0.03125-0.87109 0.050781zm-13.672-8.7148v8.6992h5.7617v-23.332h-5.8203v8.6719h-7.8203v-8.6719h-5.7773v23.316h5.8359v-8.6836z" fill="#0c091c"></path><path d="m59.824 44.148c2.0156 0 3.9648-0.035157 5.9102 0.011718 0.5 0.003906 0.97266 0.21094 1.3203 0.57031 0.34375 0.35547 0.53125 0.83984 0.51562 1.3359 0.03125 2.6211 0.03125 5.2383 0 7.8594v0.003907c0.011719 0.51172-0.1875 1.0078-0.55078 1.3711-0.36328 0.35938-0.85938 0.55859-1.3711 0.54688-1.918 0.035156-3.8359 0.011719-5.8242 0.011719z" fill="#0c091c"></path></svg> 