<?xml version="1.0" encoding="UTF-8"?> <svg xmlns="http://www.w3.org/2000/svg" width="40" height="40" viewBox="0 0 40 40" fill="none"><path d="M10.75 16.987C11.8836 15.636 13.2995 14.5498 14.8981 13.8049C16.4967 13.0601 18.2392 12.6746 20.0028 12.6758C21.7664 12.6769 23.5084 13.0646 25.106 13.8115C26.7037 14.5585 28.1182 15.6465 29.25 16.999" stroke="#0D081D" stroke-width="1.5" stroke-linecap="round" stroke-linejoin="round"></path><path d="M13.6396 19.9637C14.4191 19.0348 15.3928 18.288 16.492 17.776C17.5912 17.2639 18.7893 16.999 20.002 17C21.2146 17.001 22.4123 17.2677 23.5107 17.7815C24.6092 18.2953 25.5816 19.0436 26.3596 19.9737M16.5546 23.0027C16.9769 22.4996 17.5043 22.0952 18.0997 21.8179C18.6951 21.5406 19.344 21.3971 20.0008 21.3976C20.6576 21.3981 21.3063 21.5425 21.9013 21.8207C22.4963 22.0988 23.0231 22.504 23.4446 23.0077" stroke="#0D081D" stroke-width="1.5" stroke-linecap="round" stroke-linejoin="round"></path><path d="M19.9997 27.3216C20.7977 27.3216 21.4447 26.6747 21.4447 25.8766C21.4447 25.0786 20.7977 24.4316 19.9997 24.4316C19.2016 24.4316 18.5547 25.0786 18.5547 25.8766C18.5547 26.6747 19.2016 27.3216 19.9997 27.3216Z" fill="#0D081D"></path></svg> 