<?xml version="1.0" encoding="UTF-8"?> <svg xmlns="http://www.w3.org/2000/svg" width="40" height="40" viewBox="0 0 40 40" fill="none"><path d="M11.1578 21.9294C10.8079 21.3465 10.623 20.6793 10.623 19.9994C10.623 19.3195 10.8079 18.6524 11.1578 18.0694C11.2654 17.8899 11.4093 17.7349 11.5803 17.6144C11.7513 17.4938 11.9456 17.4104 12.1508 17.3694L13.8438 17.0304C13.9448 17.0104 14.0359 16.9564 14.1018 16.8774L16.1698 14.3944C17.3518 12.9744 17.9438 12.2654 18.4708 12.4564C18.9978 12.6474 18.9998 13.5714 18.9998 15.4194V24.5814C18.9998 26.4284 18.9998 27.3514 18.4718 27.5434C17.9448 27.7334 17.3528 27.0244 16.1708 25.6054L14.0998 23.1214C14.0341 23.0426 13.9434 22.9886 13.8428 22.9684L12.1498 22.6294C11.9446 22.5884 11.7503 22.505 11.5793 22.3844C11.4083 22.2639 11.2654 22.1089 11.1578 21.9294Z" stroke="#A149E9"></path><path d="M23.5361 16.4628C24.4692 17.3958 24.9956 18.6598 25.0006 19.9792C25.0057 21.2987 24.489 22.5667 23.5631 23.5068M27.6571 14.3418C29.15 15.8345 29.9923 17.8567 30.0005 19.9677C30.0088 22.0788 29.1823 24.1075 27.7011 25.6118" stroke="#A149E9" stroke-linecap="round"></path></svg> 