<?xml version="1.0" encoding="UTF-8"?> <svg xmlns="http://www.w3.org/2000/svg" width="40" height="40" viewBox="0 0 40 40" fill="none"><path d="M13.8596 17.8475C13.9051 17.8002 13.9409 17.7444 13.9649 17.6833C13.9889 17.6222 14.0007 17.557 13.9995 17.4913C13.9983 17.4257 13.9841 17.3609 13.9579 17.3007C13.9317 17.2405 13.8938 17.1861 13.8466 17.1405C13.7993 17.0949 13.7435 17.0591 13.6824 17.0351C13.6213 17.0111 13.556 16.9994 13.4904 17.0006C13.4247 17.0018 13.3599 17.0159 13.2997 17.0422C13.2396 17.0684 13.1851 17.1062 13.1396 17.1535L11.3986 18.9595C11.1291 19.2391 10.9785 19.6122 10.9785 20.0005C10.9785 20.3888 11.1291 20.762 11.3986 21.0415L13.1386 22.8485C13.2306 22.944 13.3568 22.999 13.4894 23.0014C13.6219 23.0039 13.7501 22.9535 13.8456 22.8615C13.941 22.7695 13.996 22.6433 13.9985 22.5107C14.0009 22.3781 13.9506 22.25 13.8586 22.1545L12.1186 20.3475C12.0287 20.2543 11.9785 20.1299 11.9785 20.0005C11.9785 19.8711 12.0287 19.7467 12.1186 19.6535L13.8596 17.8475ZM17.1516 13.1405C17.1043 13.1861 17.0664 13.2405 17.0402 13.3007C17.014 13.3609 16.9998 13.4257 16.9986 13.4913C16.9974 13.557 17.0092 13.6222 17.0332 13.6833C17.0572 13.7444 17.093 13.8002 17.1386 13.8475C17.2306 13.943 17.3568 13.998 17.4894 14.0004C17.555 14.0016 17.6203 13.9899 17.6814 13.9659C17.7425 13.9419 17.7983 13.9061 17.8456 13.8605L19.6516 12.1205C19.7447 12.0307 19.8691 11.9805 19.9986 11.9805C20.128 11.9805 20.2524 12.0307 20.3456 12.1205L22.1516 13.8605C22.2479 13.9468 22.374 13.9924 22.5033 13.9877C22.6326 13.983 22.755 13.9283 22.8448 13.8352C22.9347 13.7422 22.9849 13.6179 22.9851 13.4885C22.9852 13.3592 22.9352 13.2348 22.8456 13.1415L21.0396 11.4005C20.76 11.131 20.3868 10.9805 19.9986 10.9805C19.6103 10.9805 19.2371 11.131 18.9576 11.4005L17.1516 13.1405ZM26.8586 17.1525C26.7665 17.057 26.6403 17.002 26.5077 16.9996C26.3752 16.9971 26.247 17.0475 26.1516 17.1395C26.0561 17.2315 26.0011 17.3577 25.9986 17.4903C25.9962 17.6229 26.0465 17.751 26.1386 17.8465L27.8846 19.6575C27.9747 19.7507 28.025 19.8753 28.025 20.005C28.025 20.1347 27.9747 20.2593 27.8846 20.3525L26.1396 22.1525C26.0485 22.2479 25.9988 22.3755 26.0013 22.5074C26.0039 22.6394 26.0585 22.7649 26.1532 22.8567C26.248 22.9486 26.3752 22.9992 26.5071 22.9977C26.639 22.9961 26.765 22.9425 26.8576 22.8485L28.6016 21.0485C28.8723 20.7692 29.024 20.3956 29.0245 20.0066C29.0251 19.6176 28.8745 19.2436 28.6046 18.9635L26.8586 17.1525ZM17.8456 26.1405C17.7983 26.0949 17.7425 26.0591 17.6814 26.0351C17.6203 26.0111 17.555 25.9994 17.4894 26.0006C17.4237 26.0018 17.3589 26.0159 17.2987 26.0422C17.2386 26.0684 17.1841 26.1062 17.1386 26.1535C17.093 26.2008 17.0572 26.2566 17.0332 26.3177C17.0092 26.3788 16.9974 26.444 16.9986 26.5097C16.9998 26.5753 17.014 26.6401 17.0402 26.7003C17.0664 26.7605 17.1043 26.8149 17.1516 26.8605L18.9636 28.6055C19.2436 28.8752 19.6174 29.0256 20.0062 29.025C20.3949 29.0244 20.7683 28.873 21.0476 28.6025L22.8466 26.8595C22.8943 26.8139 22.9325 26.7594 22.9591 26.699C22.9856 26.6386 23 26.5735 23.0012 26.5075C23.0025 26.4416 22.9907 26.376 22.9665 26.3146C22.9424 26.2532 22.9063 26.1972 22.8603 26.1498C22.8144 26.1024 22.7596 26.0646 22.6989 26.0385C22.6383 26.0124 22.5732 25.9986 22.5072 25.9978C22.4412 25.9971 22.3757 26.0094 22.3145 26.034C22.2533 26.0587 22.1976 26.0952 22.1506 26.1415L20.3516 27.8845C20.2584 27.9743 20.134 28.0245 20.0046 28.0245C19.8751 28.0245 19.7507 27.9743 19.6576 27.8845L17.8456 26.1405ZM17.9996 16.0005C17.4691 16.0005 16.9604 16.2112 16.5853 16.5863C16.2103 16.9614 15.9996 17.4701 15.9996 18.0005V22.0005C15.9996 22.5309 16.2103 23.0396 16.5853 23.4147C16.9604 23.7898 17.4691 24.0005 17.9996 24.0005H21.9996C22.53 24.0005 23.0387 23.7898 23.4138 23.4147C23.7888 23.0396 23.9996 22.5309 23.9996 22.0005V18.0005C23.9996 17.4701 23.7888 16.9614 23.4138 16.5863C23.0387 16.2112 22.53 16.0005 21.9996 16.0005H17.9996ZM16.9996 18.0005C16.9996 17.7353 17.1049 17.4809 17.2924 17.2934C17.48 17.1059 17.7343 17.0005 17.9996 17.0005H21.9996C22.2648 17.0005 22.5191 17.1059 22.7067 17.2934C22.8942 17.4809 22.9996 17.7353 22.9996 18.0005V22.0005C22.9996 22.2657 22.8942 22.5201 22.7067 22.7076C22.5191 22.8951 22.2648 23.0005 21.9996 23.0005H17.9996C17.7343 23.0005 17.48 22.8951 17.2924 22.7076C17.1049 22.5201 16.9996 22.2657 16.9996 22.0005V18.0005Z" fill="#0D081D"></path></svg> 