<?xml version="1.0" encoding="UTF-8"?> <svg xmlns="http://www.w3.org/2000/svg" width="40" height="40" viewBox="0 0 40 40" fill="none"><path d="M28.7879 11.832C28.6869 11.727 28.5909 11.619 28.4869 11.515C28.3836 11.413 28.2769 11.3124 28.1669 11.213C25.9534 9.14064 23.0322 7.9914 19.9999 8.00005C18.4234 7.99603 16.8617 8.30451 15.4052 8.90766C13.9486 9.51081 12.626 10.3967 11.5139 11.514C6.9379 16.09 6.8399 23.47 11.2129 28.168C11.3109 28.276 11.4109 28.3827 11.5129 28.488C11.6169 28.591 11.7229 28.688 11.8299 28.788C14.0455 30.8591 16.9671 32.0077 19.9999 32C23.2059 32 26.2199 30.753 28.4869 28.488C33.0629 23.912 33.1599 16.532 28.7879 11.832ZM12.1329 12.133C13.1638 11.097 14.3899 10.2755 15.7402 9.71608C17.0905 9.1567 18.5383 8.8705 19.9999 8.87405C22.8249 8.87405 25.4899 9.92205 27.5499 11.832L26.5489 12.834C24.7628 11.194 22.4247 10.2865 19.9999 10.292C18.7244 10.2883 17.4608 10.5378 16.2824 11.026C15.1039 11.5142 14.0341 12.2314 13.1349 13.136C12.2305 14.0352 11.5136 15.1049 11.0256 16.2832C10.5376 17.4614 10.2882 18.7248 10.2919 20C10.2919 22.448 11.1919 24.753 12.8339 26.549L11.8309 27.55C7.7989 23.191 7.8989 16.367 12.1329 12.133ZM25.9309 13.451V13.453L24.9159 14.467C23.5652 13.2558 21.8142 12.5869 19.9999 12.589C19.0265 12.5865 18.0622 12.777 17.1629 13.1497C16.2636 13.5224 15.4472 14.0697 14.7609 14.76C14.0703 15.4464 13.5227 16.2629 13.1498 17.1624C12.777 18.0619 12.5863 19.0264 12.5889 20C12.5862 21.8133 13.2549 23.5635 14.4659 24.913L13.4519 25.929C11.9759 24.3078 11.1607 22.1925 11.1669 20C11.1637 18.8397 11.3908 17.6902 11.835 16.6182C12.2793 15.5462 12.9318 14.573 13.7549 13.755C14.5729 12.932 15.546 12.2794 16.618 11.8352C17.69 11.3909 18.8395 11.1638 19.9999 11.167C22.2129 11.167 24.3009 11.976 25.9309 13.451ZM26.5369 20C26.5369 21.745 25.8559 23.387 24.6209 24.622C23.3859 25.857 21.7459 26.538 19.9999 26.538C18.4184 26.5383 16.891 25.962 15.7039 24.917L15.7029 24.913C15.5929 24.819 15.4829 24.725 15.3789 24.622C15.2773 24.517 15.1796 24.4082 15.0859 24.296C14.0389 23.1102 13.4626 21.5819 13.4659 20C13.4659 18.254 14.1449 16.613 15.3799 15.379C15.9855 14.7708 16.7055 14.2885 17.4985 13.96C18.2914 13.6315 19.1416 13.4633 19.9999 13.465C21.5989 13.465 23.1049 14.041 24.2949 15.085C24.4059 15.181 24.5189 15.275 24.6209 15.38C24.7236 15.4847 24.8219 15.5927 24.9159 15.704C25.9625 16.8902 26.539 18.4182 26.5369 20ZM15.0839 25.534C16.4342 26.7455 18.1858 27.4147 19.9999 27.413C20.9736 27.4158 21.9382 27.225 22.8376 26.8518C23.7369 26.4786 24.5532 25.9304 25.2389 25.239C25.9301 24.5533 26.4781 23.737 26.8511 22.8376C27.2241 21.9382 27.4148 20.9737 27.4119 20C27.4137 18.1862 26.7456 16.4356 25.5359 15.084L26.5489 14.072C28.0238 15.6935 28.8389 17.8081 28.8339 20C28.8371 21.1607 28.6099 22.3104 28.1655 23.3826C27.7211 24.4548 27.0683 25.4281 26.2449 26.246C25.4273 27.0696 24.4542 27.7224 23.3821 28.1667C22.31 28.611 21.1604 28.8378 19.9999 28.834C17.8073 28.8396 15.6919 28.0245 14.0699 26.549L15.0839 25.534ZM27.8669 27.867C26.8362 28.9034 25.6102 29.725 24.2598 30.2842C22.9094 30.8435 21.4615 31.1293 19.9999 31.125C17.1989 31.133 14.4997 30.0759 12.4489 28.168L13.4529 27.167C15.2385 28.808 17.5769 29.7156 20.0019 29.709C21.2776 29.7125 22.5412 29.4627 23.7197 28.9742C24.8981 28.4856 25.9678 27.7681 26.8669 26.863C27.7711 25.964 28.488 24.8944 28.976 23.7164C29.464 22.5383 29.7135 21.2752 29.7099 20C29.7159 17.5752 28.8079 15.2372 27.1669 13.452L28.1679 12.45C32.1989 16.809 32.1029 23.632 27.8669 27.867Z" fill="#0D081D"></path></svg> 