<?xml version="1.0" encoding="UTF-8"?> <svg xmlns="http://www.w3.org/2000/svg" width="40" height="40" viewBox="0 0 40 40" fill="none"><path d="M28 30V15.5C28 14.8127 27.7553 14.224 27.266 13.734C26.7753 13.2447 26.1867 13 25.5 13H24V14.3C24 14.5 23.9333 14.6667 23.8 14.8C23.6667 14.9333 23.5 15 23.3 15H18.97C18.6973 15 18.5033 14.8847 18.388 14.654C18.272 14.4233 18.2657 14.1913 18.369 13.958L19.904 10.627C20.008 10.403 20.1403 10.2423 20.301 10.145C20.4617 10.0477 20.6793 9.99934 20.954 10H23.138C23.3847 10 23.59 10.086 23.754 10.258C23.918 10.43 24 10.639 24 10.885V12H25.5C26.472 12 27.2983 12.3403 27.979 13.021C28.6597 13.7017 29 14.528 29 15.5V30H28ZM19.43 14H23V11H20.773L19.43 14ZM12.5 30C11.792 30 11.1983 29.7603 10.719 29.281C10.2397 28.8017 10 28.208 10 27.5V25C10 24.4887 10.1767 24.037 10.53 23.645C10.8833 23.253 11.3733 23.0457 12 23.023V20.616C12 20.1713 12.1583 19.7907 12.475 19.474C12.7917 19.1573 13.1717 18.9993 13.615 19H21.385C21.829 19 22.209 19.1583 22.525 19.475C22.841 19.7917 22.9993 20.1717 23 20.615V23.023C23.626 23.0463 24.116 23.2443 24.47 23.617C24.8233 23.9903 25 24.4513 25 25V27.5C25 28.2087 24.7603 28.8023 24.281 29.281C23.8017 29.7597 23.208 29.9993 22.5 30H12.5ZM13 20.615V23.231C13.3 23.4043 13.5417 23.6617 13.725 24.003C13.9083 24.3443 14 24.6767 14 25V26H21V25C21 24.6773 21.0917 24.345 21.275 24.003C21.4583 23.661 21.7 23.4037 22 23.231V20.616C22 20.436 21.9423 20.2883 21.827 20.173C21.7117 20.0577 21.5643 20 21.385 20H13.615C13.4357 20 13.2883 20.0577 13.173 20.173C13.0577 20.2883 13 20.436 13 20.616M12.5 29H22.5C22.95 29 23.3127 28.8437 23.588 28.531C23.8633 28.2183 24.0007 27.8747 24 27.5V25C24 24.7 23.908 24.4583 23.724 24.275C23.54 24.0917 23.2973 24 22.996 24C22.6947 24 22.4533 24.0917 22.272 24.275C22.0907 24.4583 22 24.7 22 25V27H13V25C13 24.7 12.908 24.4583 12.724 24.275C12.54 24.0917 12.2973 24 11.996 24C11.6947 24 11.4533 24.0917 11.272 24.275C11.0907 24.4583 11 24.7 11 25V27.5C11 27.8753 11.1377 28.219 11.413 28.531C11.6883 28.843 12.0507 28.9993 12.5 29Z" fill="#A149E9"></path></svg> 