<?xml version="1.0" encoding="UTF-8"?> <svg xmlns="http://www.w3.org/2000/svg" width="40" height="40" viewBox="0 0 40 40" fill="none"><path d="M27 10H13C12.2046 10.0008 11.442 10.3171 10.8796 10.8796C10.3171 11.442 10.0008 12.2046 10 13V27C10.0008 27.7954 10.3171 28.558 10.8796 29.1204C11.442 29.6829 12.2046 29.9992 13 30H27C27.182 30 27.362 29.978 27.54 29.945C27.6053 29.9317 27.6697 29.916 27.733 29.898C27.9155 29.8524 28.0933 29.7898 28.264 29.711C28.3473 29.6703 28.429 29.626 28.509 29.578C28.584 29.534 28.66 29.492 28.731 29.442L28.749 29.431L28.77 29.413C28.784 29.402 28.8 29.396 28.813 29.383C28.819 29.3763 28.824 29.369 28.828 29.361C29.1908 29.0832 29.485 28.7259 29.6882 28.3166C29.8914 27.9073 29.998 27.4569 30 27V13C29.9992 12.2046 29.6829 11.442 29.1204 10.8796C28.558 10.3171 27.7954 10.0008 27 10ZM27.575 28.905C27.389 28.9646 27.1953 28.9966 27 29H13C12.4698 28.9992 11.9616 28.7882 11.5867 28.4133C11.2118 28.0384 11.0008 27.5302 11 27V22.275L14.763 18.513C15.0915 18.1858 15.5363 18.0021 16 18.0021C16.4637 18.0021 16.9085 18.1858 17.237 18.513L20.642 21.917L20.646 21.924L27.616 28.893L27.575 28.905ZM29 27C29 27.516 28.798 27.982 28.477 28.337L21.708 21.569L22.764 20.514C23.0966 20.1954 23.5394 20.0176 24 20.0176C24.4606 20.0176 24.9034 20.1954 25.236 20.514L29 24.277V27ZM29 22.863L25.943 19.807C25.4274 19.2922 24.7286 19.0031 24 19.0031C23.2714 19.0031 22.5726 19.2922 22.057 19.807L21 20.862L17.944 17.806C17.4279 17.2913 16.7288 17.0023 16 17.0023C15.2712 17.0023 14.5721 17.2913 14.056 17.806L11 20.86V13C11.0008 12.4698 11.2118 11.9616 11.5867 11.5867C11.9616 11.2118 12.4698 11.0008 13 11H27C27.5302 11.0008 28.0384 11.2118 28.4133 11.5867C28.7882 11.9616 28.9992 12.4698 29 13V22.863ZM21.5 14C21.1022 14 20.7206 14.158 20.4393 14.4393C20.158 14.7206 20 15.1022 20 15.5C20 15.8978 20.158 16.2794 20.4393 16.5607C20.7206 16.842 21.1022 17 21.5 17C21.8978 17 22.2794 16.842 22.5607 16.5607C22.842 16.2794 23 15.8978 23 15.5C23 15.1022 22.842 14.7206 22.5607 14.4393C22.2794 14.158 21.8978 14 21.5 14ZM21.5 16C21.3674 16 21.2402 15.9473 21.1464 15.8536C21.0527 15.7598 21 15.6326 21 15.5C21 15.3674 21.0527 15.2402 21.1464 15.1464C21.2402 15.0527 21.3674 15 21.5 15C21.6326 15 21.7598 15.0527 21.8536 15.1464C21.9473 15.2402 22 15.3674 22 15.5C22 15.6326 21.9473 15.7598 21.8536 15.8536C21.7598 15.9473 21.6326 16 21.5 16Z" fill="#0C081C"></path></svg> 